<svg xmlns="http://www.w3.org/2000/svg" x="0px" y="0px"
width="64" height="64"
viewBox="0 0 172 172"
style=" fill:#000000;"><g fill="none" fill-rule="nonzero" stroke="none" stroke-width="1" stroke-linecap="butt" stroke-linejoin="miter" stroke-miterlimit="10" stroke-dasharray="" stroke-dashoffset="0" font-family="none" font-weight="none" font-size="none" text-anchor="none" style="mix-blend-mode: normal"><path d="M0,172v-172h172v172z" fill="none"></path><g fill="#0a0a0a"><path d="M147.79369,32.52009c-16.91546,-16.91479 -44.43781,-16.91546 -61.35395,0c-3.01873,3.01873 -65.71509,65.71542 -68.73214,68.73248c-5.02462,5.02428 -7.4689,11.98323 -6.88336,19.5949c1.25036,16.25232 15.90496,29.83696 31.94564,29.83629c6.52088,-0.00034 12.76193,-2.28505 17.42071,-6.94181c0.62148,-0.62115 68.32263,-68.32297 68.7355,-68.7355c6.52626,-6.52626 6.5276,-17.09048 0,-23.61876c-6.51114,-6.51114 -17.10627,-6.51181 -23.61876,0l-68.7318,68.73214c-1.31184,1.31184 -1.31184,3.43899 0,4.75116c1.31184,1.3115 3.43899,1.3115 4.75083,0l68.73214,-68.73248c3.89217,-3.89184 10.22527,-3.8915 14.11643,0c3.90124,3.90124 3.90091,10.21552 0,14.11643c-1.40825,1.40859 -69.08084,69.08118 -68.73315,68.73348c-7.60764,7.60596 -21.19497,6.39726 -30.28812,-2.69623c-4.47301,-4.47267 -7.18302,-10.14128 -7.63082,-15.96039c-0.43269,-5.6246 1.32023,-10.71372 4.93526,-14.32841c3.01941,-3.01941 65.71542,-65.71542 68.73214,-68.73248c14.29582,-14.29548 37.5568,-14.29515 51.85195,0c14.33042,14.33042 14.32908,37.52288 0,51.85229l-53.90688,53.90755c-1.31184,1.31184 -1.31184,3.43899 0,4.75116c1.31217,1.3115 3.43832,1.31184 4.75116,0l53.90755,-53.90755c16.95443,-16.95544 16.95611,-44.39716 -0.00034,-61.35428z"></path></g></g></svg>