<svg xmlns="http://www.w3.org/2000/svg" x="0px" y="0px"
width="50" height="50"
viewBox="0 0 172 172"
style=" fill:#000000;"><g fill="none" fill-rule="nonzero" stroke="none" stroke-width="1" stroke-linecap="butt" stroke-linejoin="miter" stroke-miterlimit="10" stroke-dasharray="" stroke-dashoffset="0" font-family="none" font-weight="none" font-size="none" text-anchor="none" style="mix-blend-mode: normal"><path d="M0,172v-172h172v172z" fill="none"></path><g fill="#3498db"><path d="M40.72235,10.27969c-2.63433,-0.21774 -5.57735,0.55502 -8.29766,2.45234c-2.38835,1.67048 -7.55779,5.7747 -12.37594,10.40063c-2.40908,2.31296 -4.70219,4.72099 -6.48359,7.08828c-1.78141,2.3673 -3.34464,4.53137 -3.24516,7.66609c0.09134,2.82466 0.38291,11.17985 6.38281,23.95906c5.9999,12.77921 17.65122,30.31584 40.37969,53.05125c22.73536,22.74056 40.27348,34.39845 53.05125,40.39984c12.77777,6.0014 21.13573,6.29152 23.95906,6.38281c3.13437,0.0977 5.29344,-1.47004 7.65937,-3.25187c2.36594,-1.78184 4.77602,-4.07411 7.08828,-6.4836c4.62181,-4.81614 8.71431,-9.9735 10.38719,-12.36922c3.79768,-5.4107 3.16853,-11.81608 -1.06828,-14.78797c-2.66159,-1.86269 -27.1362,-18.15325 -30.80547,-20.39813c-3.73885,-2.287 -8.04158,-1.25585 -11.87875,0.77265c-3.0364,1.59845 -11.21198,6.29343 -13.55172,7.6325c-1.75622,-1.11665 -8.43639,-5.55701 -22.81015,-19.92781c-14.36892,-14.36595 -18.79947,-21.04642 -19.91438,-22.80344c1.33675,-2.33366 6.01886,-10.48505 7.62578,-13.55172v-0.00672c2.01803,-3.8237 3.13847,-8.16418 0.74578,-11.9325c-1.01846,-1.60543 -5.5961,-8.56842 -10.22594,-15.57406c-4.62983,-7.00564 -9.02092,-13.63903 -10.16547,-15.22469v-0.00672c-1.49417,-2.06569 -3.82239,-3.26929 -6.45672,-3.48703zM40.0975,17.31422c0.93897,0.1168 1.50621,0.49215 1.505,0.49047c0.55385,0.76764 5.37603,7.98982 9.9975,14.98281c4.62291,6.99516 9.33337,14.17208 10.15875,15.47328c0.13106,0.20643 0.32312,2.48657 -1.02125,5.03235v0.00672l-0.00672,0.00672c-1.51526,2.89333 -8.58656,15.265 -8.58656,15.265l-0.98765,1.72672l1.00781,1.72c0,0 5.28283,8.91442 22.08453,25.71265c16.80431,16.80084 25.71266,22.09797 25.71266,22.09797l1.72,1.00781l1.73344,-0.98765c0,0 12.35528,-7.06824 15.265,-8.6h0.00672c2.52683,-1.33581 4.81407,-1.15666 5.07938,-0.99438c2.39165,1.46322 28.81065,19.02783 30.44265,20.16969c0.04943,0.03468 1.48707,2.21053 -0.6114,5.20031l-0.00672,0.00672c-1.26331,1.8098 -5.40185,7.0547 -9.71531,11.54953c-2.15673,2.24742 -4.38361,4.33668 -6.26188,5.75125c-1.87521,1.4119 -3.5579,1.85821 -3.2989,1.86781c-2.92146,-0.09447 -9.38502,-0.15775 -21.2514,-5.7311c-11.86639,-5.57334 -28.80137,-16.71594 -51.11625,-39.03594c-22.30801,-22.31483 -33.44352,-39.24787 -39.01578,-51.11625c-5.57226,-11.86838 -5.63667,-18.33127 -5.73109,-21.2514c0.00833,0.26232 0.45389,-1.42667 1.86781,-3.30563c1.41392,-1.87895 3.49757,-4.11128 5.74453,-6.26859c4.49393,-4.31464 9.73765,-8.45475 11.54953,-9.72203v0.00672c1.48682,-1.03699 2.79666,-1.17836 3.73563,-1.06156zM137.5664,24.04641c-1.39982,0.00037 -2.65984,0.84884 -3.18658,2.14577c-0.52674,1.29693 -0.21516,2.7837 0.78799,3.76001l14.76781,14.76781h-50.17563c-1.24059,-0.01754 -2.39452,0.63425 -3.01993,1.7058c-0.62541,1.07155 -0.62541,2.39684 0,3.46839c0.62541,1.07155 1.77935,1.72335 3.01993,1.7058h50.17563l-14.76781,14.76781c-0.89867,0.86281 -1.26068,2.14404 -0.94641,3.34956c0.31427,1.20552 1.2557,2.14696 2.46122,2.46122c1.20552,0.31427 2.48675,-0.04774 3.34956,-0.94641l20.33766,-20.33765c0.85151,-0.64892 1.35239,-1.65727 1.35502,-2.72786c0.00263,-1.07059 -0.49328,-2.08139 -1.34158,-2.73449c-0.0067,-0.0045 -0.01342,-0.00898 -0.02015,-0.01344l-20.33094,-20.33094c-0.64765,-0.66575 -1.53698,-1.04135 -2.46578,-1.04141z"></path></g></g></svg>