<svg xmlns="http://www.w3.org/2000/svg" x="0px" y="0px"
width="96" height="96"
viewBox="0 0 172 172"
style=" fill:#000000;"><g transform=""><g fill="none" fill-rule="nonzero" stroke="none" stroke-width="1" stroke-linecap="butt" stroke-linejoin="miter" stroke-miterlimit="10" stroke-dasharray="" stroke-dashoffset="0" font-family="none" font-weight="none" font-size="none" text-anchor="none" style="mix-blend-mode: normal"><path d="M0,172v-172h172v172z" fill="none"></path><path d="M86,172c-47.49649,0 -86,-38.50351 -86,-86v0c0,-47.49649 38.50351,-86 86,-86v0c47.49649,0 86,38.50351 86,86v0c0,47.49649 -38.50351,86 -86,86z" fill="#ff0000"></path><g fill="#ffffff"><path d="M121.73829,99.31467c-5.2127,0 -10.33071,-0.81528 -15.18081,-2.41812c-2.37655,-0.81066 -5.29815,-0.06698 -6.74856,1.4227l-9.57317,7.22665c-11.1021,-5.92636 -17.94074,-12.76269 -23.78626,-23.78165l7.01417,-9.32374c1.82225,-1.81994 2.47586,-4.47826 1.69292,-6.97259c-1.60977,-4.8755 -2.42736,-9.9912 -2.42736,-15.20621c0,-3.76691 -3.0648,-6.83171 -6.83171,-6.83171h-15.63579c-3.76691,0 -6.83171,3.0648 -6.83171,6.83171c0,43.17973 35.12856,78.30829 78.30829,78.30829c3.76691,0 6.83171,-3.0648 6.83171,-6.83171v-15.59191c0,-3.76691 -3.0648,-6.83171 -6.83171,-6.83171z"></path></g><path d="" fill="none"></path></g></g></svg>