<svg xmlns="http://www.w3.org/2000/svg" x="0px" y="0px"
width="48" height="48"
viewBox="0 0 172 172"
style=" fill:#000000;"><defs><linearGradient x1="75.62267" y1="57.4265" x2="139.91842" y2="165.86533" gradientUnits="userSpaceOnUse" id="color-1_yRfnu0udBzMp_gr1"><stop offset="0" stop-color="#0176d0"></stop><stop offset="1" stop-color="#16538c"></stop></linearGradient><radialGradient cx="66.33825" cy="58.86342" r="55.94658" gradientUnits="userSpaceOnUse" id="color-2_yRfnu0udBzMp_gr2"><stop offset="0" stop-color="#000000"></stop><stop offset="1" stop-color="#000000" stop-opacity="0"></stop></radialGradient><linearGradient x1="57.86367" y1="69.32317" x2="82.09058" y2="97.8035" gradientUnits="userSpaceOnUse" id="color-3_yRfnu0udBzMp_gr3"><stop offset="0" stop-color="#33bef0"></stop><stop offset="1" stop-color="#22a5e2"></stop></linearGradient></defs><g fill="none" fill-rule="nonzero" stroke="none" stroke-width="1" stroke-linecap="butt" stroke-linejoin="miter" stroke-miterlimit="10" stroke-dasharray="" stroke-dashoffset="0" font-family="none" font-weight="none" font-size="none" text-anchor="none" style="mix-blend-mode: normal"><path d="M0,172v-172h172v172z" fill="none"></path><g><path d="M160.92392,156.69558l-13.10425,-29.81333c3.99542,-7.36017 6.26367,-15.79533 6.26367,-24.75725c0,-28.69533 -23.263,-51.95833 -51.95833,-51.95833c-28.69533,0 -51.95833,23.263 -51.95833,51.95833c0,28.69533 23.263,51.95833 51.95833,51.95833c9.36325,0 18.1245,-2.51192 25.71042,-6.84417l28.00375,14.25808c3.11033,1.58383 6.48942,-1.60892 5.08475,-4.80167z" fill="url(#color-1_yRfnu0udBzMp_gr1)"></path><path d="M50.16667,102.125c0,3.56542 0.36192,7.04842 1.04633,10.41317c4.80167,1.3545 9.84342,2.1285 15.07867,2.1285c30.67333,0 55.54167,-24.86833 55.54167,-55.54167c0,-1.7415 -0.10392,-3.45792 -0.26158,-5.16c-6.00925,-2.4295 -12.56317,-3.79833 -19.44675,-3.79833c-28.69533,0 -51.95833,23.263 -51.95833,51.95833z" fill="url(#color-2_yRfnu0udBzMp_gr2)"></path><path d="M66.29167,10.75c-26.71733,0 -48.375,21.65767 -48.375,48.375c0,7.37808 1.6985,14.3405 4.65475,20.597c-0.04658,0.1075 -0.10392,0.1935 -0.14333,0.31533l-11.34842,25.8215c-1.40467,3.19633 1.97442,6.38908 5.08475,4.80525l22.82225,-11.62075c7.77225,5.32842 17.16775,8.45667 27.305,8.45667c26.71733,0 48.375,-21.65767 48.375,-48.375c0,-26.71733 -21.65767,-48.375 -48.375,-48.375z" fill="url(#color-3_yRfnu0udBzMp_gr3)"></path></g></g></svg>