<svg xmlns="http://www.w3.org/2000/svg" x="0px" y="0px"
width="96" height="96"
viewBox="0 0 172 172"
style=" fill:#000000;"><g fill="none" fill-rule="nonzero" stroke="none" stroke-width="1" stroke-linecap="butt" stroke-linejoin="miter" stroke-miterlimit="10" stroke-dasharray="" stroke-dashoffset="0" font-family="none" font-weight="none" font-size="none" text-anchor="none" style="mix-blend-mode: normal"><path d="M0,172v-172h172v172z" fill="none"></path><path d="M86,172c-47.49649,0 -86,-38.50351 -86,-86v0c0,-47.49649 38.50351,-86 86,-86v0c47.49649,0 86,38.50351 86,86v0c0,47.49649 -38.50351,86 -86,86z" fill="#2ecc71"></path><g fill="#ffffff"><path d="M86,27.95c-9.50013,0 -17.2,7.69987 -17.2,17.2v34.4c0,9.50013 7.69987,17.2 17.2,17.2c9.50013,0 17.2,-7.69987 17.2,-17.2v-34.4c0,-9.50013 -7.69987,-17.2 -17.2,-17.2zM52.10391,79.55c-3.4744,0 -6.2728,3.08292 -5.71094,6.51719c2.80864,17.19838 16.56553,30.68637 33.8737,33.16823v11.91458c0,3.1648 2.56853,5.73333 5.73333,5.73333c3.1648,0 5.73333,-2.56853 5.73333,-5.73333v-11.91458c17.30817,-2.48186 31.06506,-15.96985 33.8737,-33.16823c0.56187,-3.43427 -2.23654,-6.51719 -5.71094,-6.51719c-2.83227,0 -5.16788,2.08443 -5.64375,4.88229c-2.322,13.50201 -14.08527,23.78438 -28.25234,23.78438c-14.16707,0 -25.93034,-10.28237 -28.25234,-23.78438c-0.47587,-2.79786 -2.80575,-4.88229 -5.64375,-4.88229z"></path></g></g></svg>