<svg xmlns="http://www.w3.org/2000/svg" x="0px" y="0px"
width="50" height="50"
viewBox="0 0 172 172"
style=" fill:#000000;"><g fill="none" fill-rule="nonzero" stroke="none" stroke-width="1" stroke-linecap="butt" stroke-linejoin="miter" stroke-miterlimit="10" stroke-dasharray="" stroke-dashoffset="0" font-family="none" font-weight="none" font-size="none" text-anchor="none" style="mix-blend-mode: normal"><path d="M0,172v-172h172v172z" fill="none"></path><path d="M86,172c-47.49649,0 -86,-38.50351 -86,-86v0c0,-47.49649 38.50351,-86 86,-86v0c47.49649,0 86,38.50351 86,86v0c0,47.49649 -38.50351,86 -86,86z" fill="#e74c3c"></path><g fill="#ffffff"><path d="M39.6288,39.6288c-5.36739,0 -9.76236,4.39497 -9.76236,9.76236v43.93061c0,5.36739 4.39497,9.76236 9.76236,9.76236h24.40589v19.52472c0,5.36739 4.39497,9.76236 9.76236,9.76236h58.57415c5.36739,0 9.76236,-4.39497 9.76236,-9.76236v-43.93061c0,-5.36739 -4.39497,-9.76236 -9.76236,-9.76236h-24.40589v-19.52472c0,-5.36739 -4.39497,-9.76236 -9.76236,-9.76236zM39.6288,44.50998h58.57415c2.7266,0 4.88118,2.15458 4.88118,4.88118v19.52472h-29.28707c-5.36739,0 -9.76236,4.39497 -9.76236,9.76236v19.52472h-24.40589c-2.72659,0 -4.88118,-2.15458 -4.88118,-4.88118v-43.93061c0,-2.72659 2.15458,-4.88118 4.88118,-4.88118zM73.79705,73.79705h58.57415c2.7266,0 4.88118,2.15458 4.88118,4.88118v43.93061c0,2.7266 -2.15458,4.88118 -4.88118,4.88118h-58.57415c-2.72659,0 -4.88118,-2.15458 -4.88118,-4.88118v-21.50769c0.06674,-0.32414 0.06674,-0.66735 0,-0.99149v-21.43143c0,-2.72659 2.15458,-4.88118 4.88118,-4.88118z"></path></g></g></svg>