<svg xmlns="http://www.w3.org/2000/svg" x="0px" y="0px" width="100" height="100" viewBox="0 0 172 172" style=" fill:#000000;"><g transform=""><g fill="none" fill-rule="nonzero" stroke="none" stroke-width="1" stroke-linecap="butt" stroke-linejoin="miter" stroke-miterlimit="10" stroke-dasharray="" stroke-dashoffset="0" font-family="none" font-weight="none" font-size="none" text-anchor="none" style="mix-blend-mode: normal"><path d="M0,172v-172h172v172z" fill="none"></path><path d="M86,172c-47.49649,0 -86,-38.50351 -86,-86v0c0,-47.49649 38.50351,-86 86,-86v0c47.49649,0 86,38.50351 86,86v0c0,47.49649 -38.50351,86 -86,86z" fill="#2ecc71"></path><g fill="#ffffff"><path d="M36.464,36.464c-5.73371,0 -10.42863,4.69492 -10.42863,10.42863v46.92884c0,5.73371 4.69492,10.42863 10.42863,10.42863h26.07158v20.85726c0,5.73371 4.69492,10.42863 10.42863,10.42863h62.57179c5.73371,0 10.42863,-4.69492 10.42863,-10.42863v-46.92884c0,-5.73371 -4.69492,-10.42863 -10.42863,-10.42863h-26.07158v-20.85726c0,-5.73371 -4.69492,-10.42863 -10.42863,-10.42863zM36.464,41.67832h62.57179c2.91269,0 5.21432,2.30163 5.21432,5.21432v20.85726h-31.28589c-5.73371,0 -10.42863,4.69492 -10.42863,10.42863v20.85726h-26.07158c-2.91268,0 -5.21432,-2.30163 -5.21432,-5.21432v-46.92884c0,-2.91268 2.30163,-5.21432 5.21432,-5.21432zM72.96421,72.96421h62.57179c2.91269,0 5.21432,2.30163 5.21432,5.21432v46.92884c0,2.91269 -2.30163,5.21432 -5.21432,5.21432h-62.57179c-2.91268,0 -5.21432,-2.30163 -5.21432,-5.21432v-22.97558c0.07129,-0.34626 0.07129,-0.71289 0,-1.05916v-22.89411c0,-2.91268 2.30163,-5.21432 5.21432,-5.21432z"></path></g><path d="" fill="none"></path></g></g></svg>